<svg xmlns="http://www.w3.org/2000/svg" viewBox="0 0 158.752 59.043">
  <defs>
    <style>
      .cls-1 {
        fill: #fc7c0c;
      }

      .cls-2 {
        fill: #fff;
      }
    </style>
  </defs>
  <g id="logo_Hrins" data-name="logo Hrins" transform="translate(-32.7 -31.2)">
    <g id="Group_4" data-name="Group 4" transform="translate(32.7 31.2)">
      <path id="Path_1" data-name="Path 1" class="cls-1" d="M351.032,142.542V168.5H340.8v-26a.149.149,0,0,1,.261-.1,6.977,6.977,0,0,0,9.73.02A.147.147,0,0,1,351.032,142.542Z" transform="translate(-278.988 -120.052)"/>
      <path id="Path_2" data-name="Path 2" class="cls-1" d="M48.77,93.1v13.823H44.477V93.1H32.7v36.012H44.477V114.426H48.77v14.686H60.546V93.1Z" transform="translate(-32.7 -80.682)"/>
      <path id="Path_3" data-name="Path 3" class="cls-1" d="M425.077,93.1v20.544L418.156,93.1H406.7v36.012h8.727V109.19l6.681,19.761v.161h.04v.02l.02-.02h11.576V93.1Z" transform="translate(-331.667 -80.682)"/>
      <path id="Path_4" data-name="Path 4" class="cls-1" d="M648.662,63.6l-.562.522s27.806,10.573,23.994,35.129l6.42-3.431C678.494,95.8,681.985,73.049,648.662,63.6Z" transform="translate(-524.637 -57.1)"/>
      <path id="Path_5" data-name="Path 5" class="cls-1" d="M695.2,45.576,663.28,40.5l-.08.181s29.973,4.614,32,34.387h.261Z" transform="translate(-536.708 -38.634)"/>
      <path id="Path_6" data-name="Path 6" class="cls-1" d="M208.148,112.039a8.246,8.246,0,0,0,4.233-2.929,9.148,9.148,0,0,0,.762-9.81l-.02-.02h0c-2.568-6-15.247-6.179-15.247-6.179H186.1v36.032h11.776V115.891l6.46,13.241h12.118ZM197.9,107.083v-6.139s4.534-.883,4.434,2.929S197.9,107.083,197.9,107.083Z" transform="translate(-155.325 -80.682)"/>
      <g id="Group_1" data-name="Group 1" transform="translate(62.333 12.555)">
        <path id="Path_7" data-name="Path 7" class="cls-1" d="M348.576,113.781a3.865,3.865,0,0,1-.482.02,4.7,4.7,0,0,1-4.695-4.695,4.532,4.532,0,0,1,.461-2.006C345.687,108,349,110.149,348.576,113.781Z" transform="translate(-343.4 -104.428)"/>
        <path id="Path_8" data-name="Path 8" class="cls-1" d="M355.147,97.838a4.675,4.675,0,0,1-2.648,4.875c.06-.522.281-4.474-6.1-6.52a3.964,3.964,0,0,1,.742-.983c1.946.582,5.5,2.127,6.32,6.019a.28.28,0,0,0,.221,0l-.06-5.1a.213.213,0,0,0-.181-.2l-6.179-.863a4.69,4.69,0,0,1,3.892-1.244A4.746,4.746,0,0,1,355.147,97.838Z" transform="translate(-345.798 -93.782)"/>
      </g>
      <path id="Path_9" data-name="Path 9" class="cls-1" d="M577.524,102.031l2.388-7.664S577.383,92.1,569.8,92.1c-7.584.02-14.144,4.915-13.763,11.8s7.523,9.068,11.837,11.636,1.164,4.394,1.164,4.394-2.127,1.144-9.75-.923l-2.688,7.644s15.789,5.377,21.828-2.708,1.324-12.057.04-13.662-8.607-5.337-9.871-5.818-3.35-3.391.9-4.053A13.073,13.073,0,0,1,577.524,102.031Z" transform="translate(-451.031 -79.882)"/>
      <g id="Group_2" data-name="Group 2" transform="translate(0.823 51.72)">
        <path id="Path_10" data-name="Path 10" class="cls-2" d="M42.859,303.8H41.414l-.823-3.852h-.02l-.823,3.852H38.3l-1.5-5.3h1.485l.823,3.792h.02l.742-3.792h1.4l.8,3.792h.02l.823-3.792h1.444Z" transform="translate(-36.8 -296.594)"/>
        <path id="Path_11" data-name="Path 11" class="cls-2" d="M83.259,303.8H81.814l-.823-3.852h-.02l-.823,3.852H78.7l-1.5-5.3h1.485l.823,3.792h.02l.742-3.792h1.4l.8,3.792h.02l.823-3.792h1.444Z" transform="translate(-69.095 -296.594)"/>
        <path id="Path_12" data-name="Path 12" class="cls-2" d="M123.659,303.8h-1.444l-.823-3.852h-.02l-.823,3.852H119.1l-1.5-5.3h1.485l.823,3.792h.02l.742-3.792h1.4l.8,3.792h.02l.823-3.792h1.444Z" transform="translate(-101.39 -296.594)"/>
        <path id="Path_13" data-name="Path 13" class="cls-2" d="M160.3,319.144h-1.5V317.7h1.5Z" transform="translate(-134.324 -311.942)"/>
        <path id="Path_14" data-name="Path 14" class="cls-2" d="M179.215,296.442h-1.4v-3.21c0-.381-.02-1.043-.9-1.043a1.089,1.089,0,0,0-1.1,1.224v3.029h-1.4V289.3h1.4v2.528h.02a1.642,1.642,0,0,1,1.545-.823,1.685,1.685,0,0,1,1.846,1.765Z" transform="translate(-146.794 -289.24)"/>
        <path id="Path_15" data-name="Path 15" class="cls-2" d="M206.5,297.94h1.344v.923h.02a1.541,1.541,0,0,1,1.465-1.063c.08,0,.181.02.261.02v1.4a2.559,2.559,0,0,0-.4-.02,1.129,1.129,0,0,0-1.284,1.264v2.749h-1.4Z" transform="translate(-172.454 -296.034)"/>
        <path id="Path_16" data-name="Path 16" class="cls-2" d="M229.2,290.284h-1.4V289h1.4Zm0,.622v5.3h-1.4v-5.3Z" transform="translate(-189.481 -289)"/>
        <path id="Path_17" data-name="Path 17" class="cls-2" d="M247.915,303.237h-1.4v-3.21c0-.381-.02-1.043-.9-1.043a1.089,1.089,0,0,0-1.1,1.224v3.029h-1.4v-5.3h1.344v.782h.02a1.851,1.851,0,0,1,3.451.843Z" transform="translate(-201.712 -296.035)"/>
        <path id="Path_18" data-name="Path 18" class="cls-2" d="M276.95,299.625c-.06-.341-.181-.7-.943-.7s-.863.281-.863.522c0,.843,3.33.221,3.33,2.167,0,1.545-1.5,1.826-2.327,1.826-1.2,0-2.508-.421-2.548-1.826h1.444c0,.441.281.782,1.164.782.722,0,.883-.341.883-.542,0-.883-3.29-.221-3.29-2.187,0-.782.482-1.765,2.147-1.765,1.043,0,2.267.261,2.387,1.745H276.95Z" transform="translate(-226.093 -296.114)"/>
        <path id="Path_19" data-name="Path 19" class="cls-2" d="M306.1,319.144h-1.5V317.7h1.5Z" transform="translate(-250.873 -311.942)"/>
        <path id="Path_20" data-name="Path 20" class="cls-2" d="M325.015,303.237h-1.4v-3.21c0-.381-.02-1.043-.9-1.043a1.089,1.089,0,0,0-1.1,1.224v3.029h-1.4v-5.3h1.344v.782h.02a1.851,1.851,0,0,1,3.451.843Z" transform="translate(-263.344 -296.035)"/>
        <path id="Path_21" data-name="Path 21" class="cls-2" d="M355.275,301.672a2.293,2.293,0,0,1-2.327,1.685c-1.5,0-2.648-.722-2.648-2.889a2.455,2.455,0,0,1,2.548-2.668c1.043,0,2.488.5,2.488,2.909v.241h-3.651c.04.4.12,1.284,1.244,1.284a.919.919,0,0,0,.9-.582h1.444Zm-1.384-1.6a1.056,1.056,0,0,0-1.083-1.1c-.662,0-1,.421-1.083,1.1Z" transform="translate(-287.405 -296.034)"/>
        <path id="Path_22" data-name="Path 22" class="cls-2" d="M381.127,292.824h.863v1h-.863V296.7c0,.3,0,.421.582.421a1.422,1.422,0,0,0,.281-.02v1.063c-.221,0-.441.02-.662.02h-.181c-1.2,0-1.424-.461-1.424-1.144v-3.21H379v-1h.722V291.4h1.4Z" transform="translate(-310.347 -290.918)"/>
      </g>
      <g id="Group_3" data-name="Group 3" transform="translate(62.474)">
        <path id="Path_23" data-name="Path 23" class="cls-2" d="M345.685,38.723H344.1V31.2h1.585Z" transform="translate(-344.1 -31.2)"/>
        <path id="Path_24" data-name="Path 24" class="cls-2" d="M365.554,31.2h1.465v7.523h-1.585l-3.049-5.357h-.02v5.377H360.9V31.2h1.665l2.969,5.236h.02Z" transform="translate(-357.53 -31.2)"/>
        <path id="Path_25" data-name="Path 25" class="cls-2" d="M401.472,38.723h-1.585v-6.2H397.6V31.2h6.139v1.324h-2.287v6.2Z" transform="translate(-386.867 -31.2)"/>
        <path id="Path_26" data-name="Path 26" class="cls-2" d="M440.257,32.524h-4.012v1.585h3.691v1.324h-3.691v1.946h4.193V38.7H434.7V31.2h5.557Z" transform="translate(-416.524 -31.2)"/>
        <path id="Path_27" data-name="Path 27" class="cls-2" d="M471.5,31.2h3.812a2.119,2.119,0,0,1,2.367,2.127,1.786,1.786,0,0,1-1.164,1.786c.622.281.963.5.963,1.906,0,1.1,0,1.364.341,1.5v.2h-1.745a5.258,5.258,0,0,1-.16-1.525c0-1.023-.06-1.424-1.224-1.424h-1.625v2.949H471.52V31.2Zm3.411,3.31c.823,0,1.224-.281,1.224-1.023,0-.4-.181-.983-1.1-.983h-1.966V34.51Z" transform="translate(-445.941 -31.2)"/>
        <path id="Path_28" data-name="Path 28" class="cls-2" d="M515.575,31.2h1.465v7.523h-1.585l-3.07-5.357h-.02v5.377H510.9V31.2h1.665l2.989,5.236h.02Z" transform="translate(-477.436 -31.2)"/>
        <path id="Path_29" data-name="Path 29" class="cls-2" d="M556.537,32.524h-4.012v1.585h3.691v1.324h-3.671v1.946h4.193V38.7H551V31.2h5.557v1.324Z" transform="translate(-509.491 -31.2)"/>
        <path id="Path_30" data-name="Path 30" class="cls-2" d="M588.272,38.723h-1.585v-6.2H584.4V31.2h6.139v1.324h-2.287v6.2Z" transform="translate(-536.191 -31.2)"/>
      </g>
    </g>
  </g>
</svg>
